<?xml version="1.0" encoding="UTF-8"?>
<svg xmlns="http://www.w3.org/2000/svg" xmlns:xlink="http://www.w3.org/1999/xlink" version="1.1" viewBox="0 0 841.9 595.3">
  <defs>
    <style>
      .cls-1 {
        fill: url(#linear-gradient);
      }

      .cls-2 {
        fill: #133250;
      }

      .cls-3 {
        fill: #fff;
      }

      .cls-4 {
        fill: #009abf;
      }
    </style>
    <linearGradient id="linear-gradient" x1="179.8" y1="215.9" x2="309.9" y2="346" gradientUnits="userSpaceOnUse">
      <stop offset=".2" stop-color="#009abf"/>
      <stop offset=".3" stop-color="#028eb2"/>
      <stop offset=".5" stop-color="#076f91"/>
      <stop offset=".8" stop-color="#103e5d"/>
      <stop offset=".8" stop-color="#133250"/>
    </linearGradient>
  </defs>
  <!-- Generator: Adobe Illustrator 28.7.1, SVG Export Plug-In . SVG Version: 1.2.0 Build 142)  -->
  <g>
    <g id="Layer_1">
      <path class="cls-1" d="M212.1,283.1s-1.1,8.4-.6,9.7c0,0,6.8-33,43.7-55.3,0,0-5,12-5.3,14.3,0,0,23-29.3,54-30.6-1.4-.8-3-1.3-4.8-1.3h-123.4v123.4c0,2.2.8,4.3,2.1,5.9,0-1.5.4-3.2,1.1-5.1,2.5-6.4,21.2-29.4,21.2-29.4,0,0,.7-22.6,12-31.7ZM312.4,237.3c-4.3,6.6-14.7,20.3-28.1,24.1-13.4,3.8-18.4,5.5-18.4,5.5,0,0,9,0,24.2-3.6,0,0-17.6,30.7-49.6,29.3,0,0-3,2.7,24.7-1.4,0,0-15.3,18.3-32.6,21.7-17.3,3.3-19.4,3.2-22.9,5.6,0,0,30.5-49.2,68-71.4,0,0-39.4,10.5-84.5,90.9l-4.4,8.3s-4,1.1-7.6,5.5c1.2.6,2.6.9,4,.9h114c5.2,0,9.4-4.2,9.4-9.4v-88.3s14-11.3,15.1-30.6c0,0-6.9,6.3-11.2,12.8Z"/>
      <path class="cls-3" d="M301.8,326.6c-11.2-3.7-25.8-6.5-38-8.1-3.3-.2-10.9-1.7-12.7.4-1.1,3.1,6.7,7,8.6,8.9,3.5,3-1.6,3.3-3.8,3.4-8.6.5-17.4-.1-26.3,0-4.6,0-12.6.1-15.9,1.6-6.2,3,5.6,7.9,3.4,9.6-.6.5-2.3.8-4.5,1-4.7.6-10.3.4-14.7,1.6-.4.2,0,.3.2.4,1.5.5,7.9.3,13.8.2,2.5-.2,11.8,0,9.1-4.4-1-1.5-3.2-2.7-4.2-4.2-1.6-2.1,2.5-3.1,5-3.2,8.7-.5,17,0,25.8,0,14.5.1,24.9-1,7.9-12.1-1.7-1.3-1.1-1.7.9-1.7,4.4.1,9.6.8,14.2,1.6,9.3,1.5,17.8,3.2,26.5,4.9,1.2.2,6.5,1.1,4.9.1h0Z"/>
      <g>
        <path class="cls-4" d="M369.1,231h-10.9v29.6h-7.3v-29.6h-10.7v-5.9h29v5.9Z"/>
        <path class="cls-4" d="M394.7,245.2h-14.1v9.5h16.5v5.9h-23.8v-35.6h23.8v5.9h-16.5v8.5h14.1v5.7Z"/>
        <path class="cls-4" d="M429.3,248.8c-.3,3.8-1.7,6.8-4.2,9s-5.9,3.3-10.1,3.3-8.1-1.5-10.8-4.6c-2.6-3.1-3.9-7.3-3.9-12.6v-2.2c0-3.4.6-6.4,1.8-9s2.9-4.6,5.2-6c2.2-1.4,4.8-2.1,7.8-2.1s7.4,1.1,9.9,3.3c2.5,2.2,4,5.3,4.3,9.3h-7.3c-.2-2.3-.8-4-1.9-5-1.1-1-2.8-1.6-5-1.6s-4.3.9-5.5,2.6c-1.2,1.8-1.8,4.5-1.9,8.1v2.7c0,3.8.6,6.7,1.7,8.4,1.2,1.8,3,2.7,5.5,2.7s4-.5,5.1-1.6c1.1-1,1.8-2.6,1.9-4.8h7.3Z"/>
        <path class="cls-4" d="M464.1,260.6h-7.3v-15.2h-14.3v15.2h-7.3v-35.6h7.3v14.4h14.3v-14.4h7.3v35.6Z"/>
        <path class="cls-4" d="M499.5,260.6h-7.3l-14.3-23.4v23.4h-7.3v-35.6h7.3l14.3,23.4v-23.4h7.3v35.6Z"/>
        <path class="cls-4" d="M513.6,260.6h-7.3v-35.6h7.3v35.6Z"/>
        <path class="cls-4" d="M548.4,248.8c-.3,3.8-1.7,6.8-4.2,9s-5.9,3.3-10.1,3.3-8.1-1.5-10.8-4.6c-2.6-3.1-3.9-7.3-3.9-12.6v-2.2c0-3.4.6-6.4,1.8-9,1.2-2.6,2.9-4.6,5.2-6,2.2-1.4,4.8-2.1,7.8-2.1s7.4,1.1,9.9,3.3,4,5.3,4.3,9.3h-7.3c-.2-2.3-.8-4-1.9-5-1.1-1-2.8-1.6-5-1.6s-4.3.9-5.5,2.6c-1.2,1.8-1.8,4.5-1.9,8.1v2.7c0,3.8.6,6.7,1.7,8.4,1.2,1.8,3,2.7,5.5,2.7s4-.5,5.1-1.6c1.1-1,1.8-2.6,1.9-4.8h7.3Z"/>
        <path class="cls-4" d="M574.5,253.3h-12.8l-2.4,7.3h-7.8l13.2-35.6h6.8l13.3,35.6h-7.8l-2.5-7.3ZM563.6,247.3h8.9l-4.5-13.3-4.4,13.3Z"/>
        <path class="cls-4" d="M595.4,254.7h15.6v5.9h-22.9v-35.6h7.3v29.7Z"/>
        <path class="cls-4" d="M621.6,254.7h15.6v5.9h-22.9v-35.6h7.3v29.7Z"/>
        <path class="cls-4" d="M648.6,241.1l7.4-16h8l-11.7,22.7v12.9h-7.5v-12.9l-11.7-22.7h8l7.4,16Z"/>
      </g>
      <g>
        <path class="cls-2" d="M407.4,322.8l9.2-50.4h19.2l-17.1,80.4h-20.1l-10.8-45.9-10.6,45.9h-20.1l-17.1-80.4h19.3l9.2,50.4,11-50.4h16.5l11.2,50.4Z"/>
        <path class="cls-2" d="M470.8,324.3h-10.5v28.5h-19.4v-80.4h31.7c9.5,0,17,2.1,22.4,6.3,5.4,4.2,8.1,10.2,8.1,17.9s-1.1,10.2-3.4,13.9c-2.3,3.7-5.8,6.7-10.6,8.9l16.8,32.5v.8h-20.8l-14.2-28.5ZM460.3,309.4h12.3c3.7,0,6.5-1,8.3-2.9,1.9-1.9,2.8-4.6,2.8-8.1s-.9-6.2-2.8-8.2c-1.9-2-4.6-3-8.3-3h-12.3v22.2Z"/>
        <path class="cls-2" d="M531.2,352.8h-19.3v-80.4h19.3v80.4Z"/>
        <path class="cls-2" d="M604.1,287.3h-24.1v65.5h-19.4v-65.5h-23.7v-15h67.2v15Z"/>
        <path class="cls-2" d="M658.4,318.6h-30.5v19.2h36v14.9h-55.4v-80.4h55.5v15h-36.1v17h30.5v14.4Z"/>
      </g>
    </g>
  </g>
</svg>